<svg id="Capa_1" data-name="Capa 1" xmlns="http://www.w3.org/2000/svg" viewBox="0 0 434 480.66"><defs><style>.cls-1{fill:#0063bd;}.cls-2{fill:#ad033e;}</style></defs><path class="cls-1" d="M133.44,169c-2.57,13.78-4.71,24.27-6.46,34.82-6,36.06,7.15,57.46,42.17,68.72,20.69,6.66,42.08,8,63.64,8.42,26.25.53,52.23,3.3,76.66,13.95,24.15,10.52,41.92,27,48.95,53.34,6.28,23.55-1.66,43.55-17.23,60.18-24,25.65-49.23,50.18-74.19,74.93-10.53,10.44-23.65,10.4-34.29-.22q-95.91-95.84-191.48-192C30.93,280.8,30,267.86,39.57,258.52,69.82,229.08,100.63,200.22,133.44,169Z" transform="translate(-32.91 -10.51)"/><path class="cls-2" d="M366.43,332.66c2.11-11.16,3.72-19.19,5.15-27.24,8.64-48.78-8-71.73-56.94-80.82-25.59-4.75-51.52-2.77-77.13-6.09-22.93-3-45-8.38-64.5-21.53-39.47-26.62-44.14-74-10.67-107.79q34.1-34.39,68.23-68.75c13.23-13.26,25.85-13.25,39.1,0q93.87,94.11,187.62,188.34c11.3,11.35,13,24.42,3.1,34.11C430.14,272.42,399.33,301.33,366.43,332.66Z" transform="translate(-32.91 -10.51)"/></svg>